<svg xmlns="http://www.w3.org/2000/svg" xmlns:xlink="http://www.w3.org/1999/xlink" viewBox="0 0 430 430" width="430" height="430" preserveAspectRatio="xMidYMid meet" style="width: 100%; height: 100%; transform: translate3d(0px, 0px, 0px); content-visibility: visible;"><defs><clipPath id="__lottie_element_1026"><rect width="430" height="430" x="0" y="0"/></clipPath><clipPath id="__lottie_element_1028"><path d="M0,0 L430,0 L430,430 L0,430z"/></clipPath></defs><g clip-path="url(#__lottie_element_1026)"><g clip-path="url(#__lottie_element_1028)" transform="matrix(1,0,0,1,0,0)" opacity="1" style="display: block;"><g transform="matrix(1,0,0,1,215.00001525878906,207)" opacity="1" style="display: block;"><g opacity="1" transform="matrix(1,0,0,1,0,123)"><path stroke-linecap="round" stroke-linejoin="round" fill-opacity="0" class="secondary" stroke="rgb(35,35,35)" stroke-opacity="1" stroke-width="18" d=" M144.48300170898438,0 C144.48300170898438,0 -144.48300170898438,0 -144.48300170898438,0"/></g><g opacity="1" transform="matrix(1,0,0,1,0,0)"><path stroke-linecap="round" stroke-linejoin="round" fill-opacity="0" class="primary" stroke="rgb(0,0,0)" stroke-opacity="1" stroke-width="18" d=" M125,-103 C45,-103 -47,-103 -125,-103 C-134,1 -148.1280059814453,165.28199768066406 -148.1280059814453,165.28199768066406 C-149.13499450683594,176.96200561523438 -139.92599487304688,187 -128.20199584960938,187 C-128.20199584960938,187 128.20199584960938,187 128.20199584960938,187 C139.92599487304688,187 149.13499450683594,176.96200561523438 148.1280059814453,165.28199768066406 C148.1280059814453,165.28199768066406 134,1 125,-103z"/></g><g opacity="1" transform="matrix(1,0,0,1,0,0)"><path stroke-linecap="round" stroke-linejoin="round" fill-opacity="0" class="secondary" stroke="rgb(35,35,35)" stroke-opacity="1" stroke-width="18" d=" M-65,-67 C-65,-67 -65,-122 -65,-122 C-65,-157.8990020751953 -35.89899826049805,-187 0,-187 C35.89899826049805,-187 65,-157.8990020751953 65,-122 C65,-122 65,-67 65,-67"/></g></g></g></g></svg>